<svg width="352px" height="679px" viewBox="0 0 352 679" xmlns="http://www.w3.org/2000/svg" xlink="http://www.w3.org/1999/xlink" style="width: 352px; height: 679px;"><g transform="matrix(1, 0, 0, 1, 0, 0)" clip-path="url(#mainClip867)"><rect x="0" y="0" width="352" height="679" fill="rgb(255,255,255)" fill-opacity="100" stroke="none" transform="matrix(1, 0, 0, 1, 0, 0)"></rect><g transform="matrix(1, 0, 0, 1, 22.42835711295222, 26.43840418436506)"><g transform="matrix(1, 0, 0, 1, -21.42835711295222, -25.43840418436506)"><g transform="matrix(1, 0, 0, 1, 0, 0)"><path d="M 0,0 L 41.85671422590444,0 L 41.85671422590444,24.43840418436506 L 0,24.43840418436506 z" fill="url(#GRAD868)" stroke="none" transform="matrix(1, 0, 0, 1, 0.5, 0.5)"></path><text x="0" y="10.828803138273795" style="font: 400 10pt Source Sans Pro, sans-serif" text-anchor="start" fill="black" stroke="none" transform="matrix(1, 0, 0, 1, 5.5, 5.5)">caller</text></g><path d="M 0.5,0 L 0.5,650" stroke-dasharray="3,3" stroke-dashoffset="0" fill="none" stroke="gray" stroke-width="1" stroke-linecap="butt" stroke-linejoin="miter" stroke-miterlimit="10" transform="matrix(1, 0, 0, 1, 20.92835711295222, 25.93840418436506)"></path></g><g transform="matrix(1, 0, 0, 1, 77.08539111381504, -25.43840418436506)"><g transform="matrix(1, 0, 0, 1, 0, 0)"><path d="M 0,0 L 44.829217772369944,0 L 44.829217772369944,24.43840418436506 L 0,24.43840418436506 z" fill="url(#GRAD869)" stroke="none" transform="matrix(1, 0, 0, 1, 0.5, 0.5)"></path><text x="0" y="10.828803138273795" style="font: 400 10pt Source Sans Pro, sans-serif" text-anchor="start" fill="black" stroke="none" transform="matrix(1, 0, 0, 1, 5.5, 5.5)">callee</text></g><path d="M 0.5,0 L 0.5,650" stroke-dasharray="3,3" stroke-dashoffset="0" fill="none" stroke="gray" stroke-width="1" stroke-linecap="butt" stroke-linejoin="miter" stroke-miterlimit="10" transform="matrix(1, 0, 0, 1, 22.414608886184972, 25.93840418436506)"></path></g><g transform="matrix(1, 0, 0, 1, 162.63344318684668, -25.43840418436506)"><g transform="matrix(1, 0, 0, 1, 0, 0)"><path d="M 0,0 L 73.73311362630663,0 L 73.73311362630663,24.43840418436506 L 0,24.43840418436506 z" fill="url(#GRAD870)" stroke="none" transform="matrix(1, 0, 0, 1, 0.5, 0.5)"></path><text x="0" y="10.828803138273795" style="font: 400 10pt Source Sans Pro, sans-serif" text-anchor="start" fill="black" stroke="none" transform="matrix(1, 0, 0, 1, 5.5, 5.5)">app-server</text></g><path d="M 0.5,0 L 0.5,650" stroke-dasharray="3,3" stroke-dashoffset="0" fill="none" stroke="gray" stroke-width="1" stroke-linecap="butt" stroke-linejoin="miter" stroke-miterlimit="10" transform="matrix(1, 0, 0, 1, 36.866556813153316, 25.93840418436506)"></path></g><g transform="matrix(1, 0, 0, 1, 272.26153174145696, -25.43840418436506)"><g transform="matrix(1, 0, 0, 1, 0, 0)"><path d="M 0,0 L 54.47693651708606,0 L 54.47693651708606,24.43840418436506 L 0,24.43840418436506 z" fill="url(#GRAD871)" stroke="none" transform="matrix(1, 0, 0, 1, 0.5, 0.5)"></path><text x="0" y="10.828803138273795" style="font: 400 10pt Source Sans Pro, sans-serif" text-anchor="start" fill="black" stroke="none" transform="matrix(1, 0, 0, 1, 5.5, 5.5)">stunner</text></g><path d="M 0.5,0 L 0.5,650" stroke-dasharray="3,3" stroke-dashoffset="0" fill="none" stroke="gray" stroke-width="1" stroke-linecap="butt" stroke-linejoin="miter" stroke-miterlimit="10" transform="matrix(1, 0, 0, 1, 27.23846825854303, 25.93840418436506)"></path></g><g transform="matrix(1, 0, 0, 1, -0.5, 24)"><path d="M 0,0 L 200,0" fill="none" stroke="black" stroke-width="1" stroke-linecap="butt" stroke-linejoin="miter" stroke-miterlimit="10" transform="matrix(1, 0, 0, 1, 0.5, 16)"></path><path d="M 0,0 L 8,4 L 0,8" fill="none" stroke="black" stroke-width="1" stroke-linecap="butt" stroke-linejoin="miter" stroke-miterlimit="10" transform="matrix(1, 0, 0, 1, 192, 12)"></path><text x="0" y="9.75" style="font: 400 9pt Source Sans Pro, sans-serif" text-anchor="start" fill="black" stroke="none" transform="matrix(1, 0, 0, 1, 3.5, 0)">register: {caller}</text></g><g transform="matrix(1, 0, 0, 1, -0.5, 55.5)"><path d="M 200,0 L 0,0" fill="none" stroke="black" stroke-width="1" stroke-linecap="butt" stroke-linejoin="miter" stroke-miterlimit="10" transform="matrix(1, 0, 0, 1, 0.5, 4.5)"></path><path d="M 0,0 L 8,4 L 0,8" fill="none" stroke="black" stroke-width="1" stroke-linecap="butt" stroke-linejoin="miter" stroke-miterlimit="10" transform="matrix(-1, 0, 0, -1, 9, 8.5)"></path><text x="0" y="9.75" style="font: 400 9pt Source Sans Pro, sans-serif" text-anchor="start" fill="black" stroke="none" transform="matrix(1, 0, 0, 1, 38.838209940500064, 7.5)">registerResponse: {iceConfig}</text></g><g transform="matrix(1, 0, 0, 1, 99.5, 84)"><path d="M 0,0 L 100,0" fill="none" stroke="black" stroke-width="1" stroke-linecap="butt" stroke-linejoin="miter" stroke-miterlimit="10" transform="matrix(1, 0, 0, 1, 0.5, 16)"></path><path d="M 0,0 L 8,4 L 0,8" fill="none" stroke="black" stroke-width="1" stroke-linecap="butt" stroke-linejoin="miter" stroke-miterlimit="10" transform="matrix(1, 0, 0, 1, 92, 12)"></path><text x="0" y="9.75" style="font: 400 9pt Source Sans Pro, sans-serif" text-anchor="start" fill="black" stroke="none" transform="matrix(1, 0, 0, 1, 3.5, 0)">register: {callee}</text></g><g transform="matrix(1, 0, 0, 1, 38.338209940500064, 115.5)"><path d="M 100,0 L 0,0" fill="none" stroke="black" stroke-width="1" stroke-linecap="butt" stroke-linejoin="miter" stroke-miterlimit="10" transform="matrix(1, 0, 0, 1, 61.661790059499936, 4.5)"></path><path d="M 0,0 L 8,4 L 0,8" fill="none" stroke="black" stroke-width="1" stroke-linecap="butt" stroke-linejoin="miter" stroke-miterlimit="10" transform="matrix(-1, 0, 0, -1, 70.16179005949994, 8.5)"></path><text x="0" y="9.75" style="font: 400 9pt Source Sans Pro, sans-serif" text-anchor="start" fill="black" stroke="none" transform="matrix(1, 0, 0, 1, 0, 7.5)">registerResponse: {iceConfig}</text></g><g transform="matrix(1, 0, 0, 1, -0.5, 164)"><path d="M 0,0 L 200,0" fill="none" stroke="black" stroke-width="1" stroke-linecap="butt" stroke-linejoin="miter" stroke-miterlimit="10" transform="matrix(1, 0, 0, 1, 0.5, 16)"></path><path d="M 0,0 L 8,4 L 0,8" fill="none" stroke="black" stroke-width="1" stroke-linecap="butt" stroke-linejoin="miter" stroke-miterlimit="10" transform="matrix(1, 0, 0, 1, 192, 12)"></path><text x="0" y="9.75" style="font: 400 9pt Source Sans Pro, sans-serif" text-anchor="start" fill="black" stroke="none" transform="matrix(1, 0, 0, 1, 3.5, 0)">call: {callee, offer}</text></g><g transform="matrix(1, 0, 0, 1, 55.20754672103894, 195.5)"><path d="M 100,0 L 0,0" fill="none" stroke="black" stroke-width="1" stroke-linecap="butt" stroke-linejoin="miter" stroke-miterlimit="10" transform="matrix(1, 0, 0, 1, 44.79245327896106, 4.5)"></path><path d="M 0,0 L 8,4 L 0,8" fill="none" stroke="black" stroke-width="1" stroke-linecap="butt" stroke-linejoin="miter" stroke-miterlimit="10" transform="matrix(-1, 0, 0, -1, 53.29245327896106, 8.5)"></path><text x="0" y="9.75" style="font: 400 9pt Source Sans Pro, sans-serif" text-anchor="start" fill="black" stroke="none" transform="matrix(1, 0, 0, 1, 0, 7.5)">incomingCall: {caller, offer}</text></g><g transform="matrix(1, 0, 0, 1, 99.5, 224)"><path d="M 0,0 L 100,0" fill="none" stroke="black" stroke-width="1" stroke-linecap="butt" stroke-linejoin="miter" stroke-miterlimit="10" transform="matrix(1, 0, 0, 1, 0.5, 16)"></path><path d="M 0,0 L 8,4 L 0,8" fill="none" stroke="black" stroke-width="1" stroke-linecap="butt" stroke-linejoin="miter" stroke-miterlimit="10" transform="matrix(1, 0, 0, 1, 92, 12)"></path><text x="0" y="9.75" style="font: 400 9pt Source Sans Pro, sans-serif" text-anchor="start" fill="black" stroke="none" transform="matrix(1, 0, 0, 1, 3.5, 0)">incomingCallResponse: {answer}</text></g><g transform="matrix(1, 0, 0, 1, -0.5, 255.5)"><path d="M 200,0 L 0,0" fill="none" stroke="black" stroke-width="1" stroke-linecap="butt" stroke-linejoin="miter" stroke-miterlimit="10" transform="matrix(1, 0, 0, 1, 0.5, 4.5)"></path><path d="M 0,0 L 8,4 L 0,8" fill="none" stroke="black" stroke-width="1" stroke-linecap="butt" stroke-linejoin="miter" stroke-miterlimit="10" transform="matrix(-1, 0, 0, -1, 9, 8.5)"></path><text x="0" y="9.75" style="font: 400 9pt Source Sans Pro, sans-serif" text-anchor="start" fill="black" stroke="none" transform="matrix(1, 0, 0, 1, 78.16966947702645, 7.5)">callRespone: {answer}</text></g><g transform="matrix(1, 0, 0, 1, -0.5, 284)"><path d="M 0,0 L 300,0" fill="none" stroke="black" stroke-width="1" stroke-linecap="butt" stroke-linejoin="miter" stroke-miterlimit="10" transform="matrix(1, 0, 0, 1, 0.5, 16)"></path><path d="M 0,0 L 8,4 L 0,8" fill="none" stroke="black" stroke-width="1" stroke-linecap="butt" stroke-linejoin="miter" stroke-miterlimit="10" transform="matrix(1, 0, 0, 1, 292, 12)"></path><text x="0" y="9.75" style="font: 400 9pt Source Sans Pro, sans-serif" text-anchor="start" fill="black" stroke="none" transform="matrix(1, 0, 0, 1, 3.5, 0)">TURN allocate request</text></g><g transform="matrix(1, 0, 0, 1, -0.5, 315.5)"><path d="M 300,0 L 0,0" fill="none" stroke="black" stroke-width="1" stroke-linecap="butt" stroke-linejoin="miter" stroke-miterlimit="10" transform="matrix(1, 0, 0, 1, 0.5, 4.5)"></path><path d="M 0,0 L 8,4 L 0,8" fill="none" stroke="black" stroke-width="1" stroke-linecap="butt" stroke-linejoin="miter" stroke-miterlimit="10" transform="matrix(-1, 0, 0, -1, 9, 8.5)"></path><text x="0" y="9.75" style="font: 400 9pt Source Sans Pro, sans-serif" text-anchor="start" fill="black" stroke="none" transform="matrix(1, 0, 0, 1, 86.83429662069909, 7.5)">TURN allocate response: {relayConn-1}</text></g><g transform="matrix(1, 0, 0, 1, -0.5, 344)"><path d="M 0,0 L 200,0" fill="none" stroke="black" stroke-width="1" stroke-linecap="butt" stroke-linejoin="miter" stroke-miterlimit="10" transform="matrix(1, 0, 0, 1, 0.5, 16)"></path><path d="M 0,0 L 8,4 L 0,8" fill="none" stroke="black" stroke-width="1" stroke-linecap="butt" stroke-linejoin="miter" stroke-miterlimit="10" transform="matrix(1, 0, 0, 1, 192, 12)"></path><text x="0" y="9.75" style="font: 400 9pt Source Sans Pro, sans-serif" text-anchor="start" fill="black" stroke="none" transform="matrix(1, 0, 0, 1, 3.5, 0)">ICEcandidate: {relayConn-1}</text></g><g transform="matrix(1, 0, 0, 1, 45, 375.5)"><path d="M 100,0 L 0,0" fill="none" stroke="black" stroke-width="1" stroke-linecap="butt" stroke-linejoin="miter" stroke-miterlimit="10" transform="matrix(1, 0, 0, 1, 55, 4.5)"></path><path d="M 0,0 L 8,4 L 0,8" fill="none" stroke="black" stroke-width="1" stroke-linecap="butt" stroke-linejoin="miter" stroke-miterlimit="10" transform="matrix(-1, 0, 0, -1, 63.5, 8.5)"></path><text x="0" y="9.75" style="font: 400 9pt Source Sans Pro, sans-serif" text-anchor="start" fill="black" stroke="none" transform="matrix(1, 0, 0, 1, 0, 7.5)">ICEcandidate: {relayConn-1}</text></g><g transform="matrix(1, 0, 0, 1, 99.5, 404)"><path d="M 0,0 L 200,0" fill="none" stroke="black" stroke-width="1" stroke-linecap="butt" stroke-linejoin="miter" stroke-miterlimit="10" transform="matrix(1, 0, 0, 1, 0.5, 16)"></path><path d="M 0,0 L 8,4 L 0,8" fill="none" stroke="black" stroke-width="1" stroke-linecap="butt" stroke-linejoin="miter" stroke-miterlimit="10" transform="matrix(1, 0, 0, 1, 192, 12)"></path><text x="0" y="9.75" style="font: 400 9pt Source Sans Pro, sans-serif" text-anchor="start" fill="black" stroke="none" transform="matrix(1, 0, 0, 1, 3.5, 0)">TURN allocate request</text></g><g transform="matrix(1, 0, 0, 1, 86.33429662069909, 435.5)"><path d="M 200,0 L 0,0" fill="none" stroke="black" stroke-width="1" stroke-linecap="butt" stroke-linejoin="miter" stroke-miterlimit="10" transform="matrix(1, 0, 0, 1, 13.665703379300908, 4.5)"></path><path d="M 0,0 L 8,4 L 0,8" fill="none" stroke="black" stroke-width="1" stroke-linecap="butt" stroke-linejoin="miter" stroke-miterlimit="10" transform="matrix(-1, 0, 0, -1, 22.165703379300908, 8.5)"></path><text x="0" y="9.75" style="font: 400 9pt Source Sans Pro, sans-serif" text-anchor="start" fill="black" stroke="none" transform="matrix(1, 0, 0, 1, 0, 7.5)">TURN allocate response: {relayConn-2}</text></g><g transform="matrix(1, 0, 0, 1, 99.5, 464)"><path d="M 0,0 L 100,0" fill="none" stroke="black" stroke-width="1" stroke-linecap="butt" stroke-linejoin="miter" stroke-miterlimit="10" transform="matrix(1, 0, 0, 1, 0.5, 16)"></path><path d="M 0,0 L 8,4 L 0,8" fill="none" stroke="black" stroke-width="1" stroke-linecap="butt" stroke-linejoin="miter" stroke-miterlimit="10" transform="matrix(1, 0, 0, 1, 92, 12)"></path><text x="0" y="9.75" style="font: 400 9pt Source Sans Pro, sans-serif" text-anchor="start" fill="black" stroke="none" transform="matrix(1, 0, 0, 1, 3.5, 0)">ICEcandidate: {relayConn-2}</text></g><g transform="matrix(1, 0, 0, 1, -0.5, 495.5)"><path d="M 200,0 L 0,0" fill="none" stroke="black" stroke-width="1" stroke-linecap="butt" stroke-linejoin="miter" stroke-miterlimit="10" transform="matrix(1, 0, 0, 1, 0.5, 4.5)"></path><path d="M 0,0 L 8,4 L 0,8" fill="none" stroke="black" stroke-width="1" stroke-linecap="butt" stroke-linejoin="miter" stroke-miterlimit="10" transform="matrix(-1, 0, 0, -1, 9, 8.5)"></path><text x="0" y="9.75" style="font: 400 9pt Source Sans Pro, sans-serif" text-anchor="start" fill="black" stroke="none" transform="matrix(1, 0, 0, 1, 45.5, 7.5)">ICEcandidate: {relayConn-2}</text></g><g transform="matrix(1, 0, 0, 1, -0.5, 524)"><path d="M 0,0 L 300,0" fill="none" stroke="black" stroke-width="1" stroke-linecap="butt" stroke-linejoin="miter" stroke-miterlimit="10" transform="matrix(1, 0, 0, 1, 0.5, 16)"></path><path d="M 0,0 L 8,4 L 0,8" fill="none" stroke="black" stroke-width="1" stroke-linecap="butt" stroke-linejoin="miter" stroke-miterlimit="10" transform="matrix(1, 0, 0, 1, 292, 12)"></path><text x="0" y="9.75" style="font: 400 9pt Source Sans Pro, sans-serif" text-anchor="start" fill="black" stroke="none" transform="matrix(1, 0, 0, 1, 3.5, 0)">TURN -&gt; relayConn-2: {media}</text></g><g transform="matrix(1, 0, 0, 1, 99.5, 544)"><path d="M 0,0 L 200,0" fill="none" stroke="black" stroke-width="1" stroke-linecap="butt" stroke-linejoin="miter" stroke-miterlimit="10" transform="matrix(1, 0, 0, 1, 0.5, 16)"></path><path d="M 0,0 L 8,4 L 0,8" fill="none" stroke="black" stroke-width="1" stroke-linecap="butt" stroke-linejoin="miter" stroke-miterlimit="10" transform="matrix(1, 0, 0, 1, 192, 12)"></path><text x="0" y="9.75" style="font: 400 9pt Source Sans Pro, sans-serif" text-anchor="start" fill="black" stroke="none" transform="matrix(1, 0, 0, 1, 3.5, 0)">TURN -&gt; relayConn-1: {media}</text></g><g transform="matrix(1, 0, 0, 1, -0.5, 584)"><path d="M 0,0 L 200,0" fill="none" stroke="black" stroke-width="1" stroke-linecap="butt" stroke-linejoin="miter" stroke-miterlimit="10" transform="matrix(1, 0, 0, 1, 0.5, 16)"></path><path d="M 0,0 L 8,4 L 0,8" fill="none" stroke="black" stroke-width="1" stroke-linecap="butt" stroke-linejoin="miter" stroke-miterlimit="10" transform="matrix(1, 0, 0, 1, 192, 12)"></path><text x="0" y="9.75" style="font: 400 9pt Source Sans Pro, sans-serif" text-anchor="start" fill="black" stroke="none" transform="matrix(1, 0, 0, 1, 3.5, 0)">stop</text></g><g transform="matrix(1, 0, 0, 1, 99.5, 615.5)"><path d="M 100,0 L 0,0" fill="none" stroke="black" stroke-width="1" stroke-linecap="butt" stroke-linejoin="miter" stroke-miterlimit="10" transform="matrix(1, 0, 0, 1, 0.5, 4.5)"></path><path d="M 0,0 L 8,4 L 0,8" fill="none" stroke="black" stroke-width="1" stroke-linecap="butt" stroke-linejoin="miter" stroke-miterlimit="10" transform="matrix(-1, 0, 0, -1, 9, 8.5)"></path><text x="0" y="9.75" style="font: 400 9pt Source Sans Pro, sans-serif" text-anchor="start" fill="black" stroke="none" transform="matrix(1, 0, 0, 1, 74.82836302573094, 7.5)">stop</text></g></g></g><clipPath id="mainClip867"><rect x="0" y="0" width="352px" height="679px"></rect></clipPath><linearGradient x1="20.92835711295222" x2="20.92835711295222" y1="0" y2="24.43840418436506" id="GRAD868" gradientUnits="userSpaceOnUse"><stop offset="0" stop-color="#bbdefb"></stop><stop offset="1" stop-color="rgb(158,194,221)" stop-opacity="1"></stop></linearGradient><linearGradient x1="22.414608886184972" x2="22.414608886184972" y1="0" y2="24.43840418436506" id="GRAD869" gradientUnits="userSpaceOnUse"><stop offset="0" stop-color="#bbdefb"></stop><stop offset="1" stop-color="rgb(158,194,221)" stop-opacity="1"></stop></linearGradient><linearGradient x1="36.866556813153316" x2="36.866556813153316" y1="0" y2="24.43840418436506" id="GRAD870" gradientUnits="userSpaceOnUse"><stop offset="0" stop-color="#bbdefb"></stop><stop offset="1" stop-color="rgb(158,194,221)" stop-opacity="1"></stop></linearGradient><linearGradient x1="27.23846825854303" x2="27.23846825854303" y1="0" y2="24.43840418436506" id="GRAD871" gradientUnits="userSpaceOnUse"><stop offset="0" stop-color="#bbdefb"></stop><stop offset="1" stop-color="rgb(158,194,221)" stop-opacity="1"></stop></linearGradient></svg>
