<svg width="352px" height="679px" viewBox="0 0 352 679" xmlns="http://www.w3.org/2000/svg" xmlns:xlink="http://www.w3.org/1999/xlink" style="width: 352px; height: 679px;"><g transform="matrix(1, 0, 0, 1, 0, 0)" clip-path="url(#mainClip867)"><rect x="0" y="0" width="352" height="679" fill="rgb(255, 255, 255)" stroke="none" transform="matrix(1, 0, 0, 1, 0, 0)"/><g transform="matrix(1, 0, 0, 1, 22.42837896224898, 26.44007432670825)"><g transform="matrix(1, 0, 0, 1, -21.42837896224898, -25.44007432670825)"><g transform="matrix(1, 0, 0, 1, 0, 0)"><path d="M 0,0 L 41.85675792449796,0 L 41.85675792449796,24.44007432670825 L 0,24.44007432670825 z" fill="url(#GRAD868)" stroke="none" transform="matrix(1, 0, 0, 1, 0.5, 0.5)"/><text x="0" y="10.830055745031189" style="font: 400 10pt Source Sans Pro, sans-serif" text-anchor="start" fill="black" stroke="none" transform="matrix(1, 0, 0, 1, 5.5, 5.5)">caller</text></g><path d="M 0.5,0 L 0.5,650" stroke-dasharray="3,3" stroke-dashoffset="0" fill="none" stroke="gray" stroke-width="1" stroke-linecap="butt" stroke-linejoin="miter" stroke-miterlimit="10" transform="matrix(1, 0, 0, 1, 20.92837896224898, 25.94007432670825)"/></g><g transform="matrix(1, 0, 0, 1, 77.08460707899737, -25.44007432670825)"><g transform="matrix(1, 0, 0, 1, 0, 0)"><path d="M 0,0 L 44.83078584200527,0 L 44.83078584200527,24.44007432670825 L 0,24.44007432670825 z" fill="url(#GRAD869)" stroke="none" transform="matrix(1, 0, 0, 1, 0.5, 0.5)"/><text x="0" y="10.830055745031189" style="font: 400 10pt Source Sans Pro, sans-serif" text-anchor="start" fill="black" stroke="none" transform="matrix(1, 0, 0, 1, 5.5, 5.5)">callee</text></g><path d="M 0.5,0 L 0.5,650" stroke-dasharray="3,3" stroke-dashoffset="0" fill="none" stroke="gray" stroke-width="1" stroke-linecap="butt" stroke-linejoin="miter" stroke-miterlimit="10" transform="matrix(1, 0, 0, 1, 22.415392921002635, 25.94007432670825)"/></g><g transform="matrix(1, 0, 0, 1, 162.635189811823, -25.44007432670825)"><g transform="matrix(1, 0, 0, 1, 0, 0)"><path d="M 0,0 L 73.72962037635395,0 L 73.72962037635395,24.44007432670825 L 0,24.44007432670825 z" fill="url(#GRAD870)" stroke="none" transform="matrix(1, 0, 0, 1, 0.5, 0.5)"/><text x="0" y="10.830055745031189" style="font: 400 10pt Source Sans Pro, sans-serif" text-anchor="start" fill="black" stroke="none" transform="matrix(1, 0, 0, 1, 5.5, 5.5)">app-server</text></g><path d="M 0.5,0 L 0.5,650" stroke-dasharray="3,3" stroke-dashoffset="0" fill="none" stroke="gray" stroke-width="1" stroke-linecap="butt" stroke-linejoin="miter" stroke-miterlimit="10" transform="matrix(1, 0, 0, 1, 36.864810188176975, 25.94007432670825)"/></g><g transform="matrix(1, 0, 0, 1, 272.26148570513783, -25.44007432670825)"><g transform="matrix(1, 0, 0, 1, 0, 0)"><path d="M 0,0 L 54.4770285897243,0 L 54.4770285897243,24.44007432670825 L 0,24.44007432670825 z" fill="url(#GRAD871)" stroke="none" transform="matrix(1, 0, 0, 1, 0.5, 0.5)"/><text x="0" y="10.830055745031189" style="font: 400 10pt Source Sans Pro, sans-serif" text-anchor="start" fill="black" stroke="none" transform="matrix(1, 0, 0, 1, 5.5, 5.5)">stunner</text></g><path d="M 0.5,0 L 0.5,650" stroke-dasharray="3,3" stroke-dashoffset="0" fill="none" stroke="gray" stroke-width="1" stroke-linecap="butt" stroke-linejoin="miter" stroke-miterlimit="10" transform="matrix(1, 0, 0, 1, 27.23851429486215, 25.94007432670825)"/></g><g transform="matrix(1, 0, 0, 1, -0.5, 24)"><path d="M 0,0 L 200,0" fill="none" stroke="black" stroke-width="1" stroke-linecap="butt" stroke-linejoin="miter" stroke-miterlimit="10" transform="matrix(1, 0, 0, 1, 0.5, 16)"/><path d="M 0,0 L 8,4 L 0,8" fill="none" stroke="black" stroke-width="1" stroke-linecap="butt" stroke-linejoin="miter" stroke-miterlimit="10" transform="matrix(1, 0, 0, 1, 192, 12)"/><text x="0" y="9.75" style="font: 400 9pt Source Sans Pro, sans-serif" text-anchor="start" fill="black" stroke="none" transform="matrix(1, 0, 0, 1, 3.5, 0)">register: {caller}</text></g><g transform="matrix(1, 0, 0, 1, -0.5, 55.5)"><path d="M 200,0 L 0,0" fill="none" stroke="black" stroke-width="1" stroke-linecap="butt" stroke-linejoin="miter" stroke-miterlimit="10" transform="matrix(1, 0, 0, 1, 0.5, 4.5)"/><path d="M 0,0 L 8,4 L 0,8" fill="none" stroke="black" stroke-width="1" stroke-linecap="butt" stroke-linejoin="miter" stroke-miterlimit="10" transform="matrix(-1, 0, 0, -1, 9, 8.5)"/><text x="0" y="9.75" style="font: 400 9pt Source Sans Pro, sans-serif" text-anchor="start" fill="black" stroke="none" transform="matrix(1, 0, 0, 1, 38.83048062698734, 7.5)">registerResponse: {iceConfig}</text></g><g transform="matrix(1, 0, 0, 1, 99.5, 84)"><path d="M 0,0 L 100,0" fill="none" stroke="black" stroke-width="1" stroke-linecap="butt" stroke-linejoin="miter" stroke-miterlimit="10" transform="matrix(1, 0, 0, 1, 0.5, 16)"/><path d="M 0,0 L 8,4 L 0,8" fill="none" stroke="black" stroke-width="1" stroke-linecap="butt" stroke-linejoin="miter" stroke-miterlimit="10" transform="matrix(1, 0, 0, 1, 92, 12)"/><text x="0" y="9.75" style="font: 400 9pt Source Sans Pro, sans-serif" text-anchor="start" fill="black" stroke="none" transform="matrix(1, 0, 0, 1, 3.5, 0)">register: {callee}</text></g><g transform="matrix(1, 0, 0, 1, 38.33048062698734, 115.5)"><path d="M 100,0 L 0,0" fill="none" stroke="black" stroke-width="1" stroke-linecap="butt" stroke-linejoin="miter" stroke-miterlimit="10" transform="matrix(1, 0, 0, 1, 61.66951937301266, 4.5)"/><path d="M 0,0 L 8,4 L 0,8" fill="none" stroke="black" stroke-width="1" stroke-linecap="butt" stroke-linejoin="miter" stroke-miterlimit="10" transform="matrix(-1, 0, 0, -1, 70.16951937301266, 8.5)"/><text x="0" y="9.75" style="font: 400 9pt Source Sans Pro, sans-serif" text-anchor="start" fill="black" stroke="none" transform="matrix(1, 0, 0, 1, 0, 7.5)">registerResponse: {iceConfig}</text></g><g transform="matrix(1, 0, 0, 1, -0.5, 164)"><path d="M 0,0 L 200,0" fill="none" stroke="black" stroke-width="1" stroke-linecap="butt" stroke-linejoin="miter" stroke-miterlimit="10" transform="matrix(1, 0, 0, 1, 0.5, 16)"/><path d="M 0,0 L 8,4 L 0,8" fill="none" stroke="black" stroke-width="1" stroke-linecap="butt" stroke-linejoin="miter" stroke-miterlimit="10" transform="matrix(1, 0, 0, 1, 192, 12)"/><text x="0" y="9.75" style="font: 400 9pt Source Sans Pro, sans-serif" text-anchor="start" fill="black" stroke="none" transform="matrix(1, 0, 0, 1, 3.5, 0)">call: {callee, offer}</text></g><g transform="matrix(1, 0, 0, 1, 55.21253035478975, 195.5)"><path d="M 100,0 L 0,0" fill="none" stroke="black" stroke-width="1" stroke-linecap="butt" stroke-linejoin="miter" stroke-miterlimit="10" transform="matrix(1, 0, 0, 1, 44.78746964521025, 4.5)"/><path d="M 0,0 L 8,4 L 0,8" fill="none" stroke="black" stroke-width="1" stroke-linecap="butt" stroke-linejoin="miter" stroke-miterlimit="10" transform="matrix(-1, 0, 0, -1, 53.28746964521025, 8.5)"/><text x="0" y="9.75" style="font: 400 9pt Source Sans Pro, sans-serif" text-anchor="start" fill="black" stroke="none" transform="matrix(1, 0, 0, 1, 0, 7.5)">incomingCall: {caller, offer}</text></g><g transform="matrix(1, 0, 0, 1, 99.5, 224)"><path d="M 0,0 L 100,0" fill="none" stroke="black" stroke-width="1" stroke-linecap="butt" stroke-linejoin="miter" stroke-miterlimit="10" transform="matrix(1, 0, 0, 1, 0.5, 16)"/><path d="M 0,0 L 8,4 L 0,8" fill="none" stroke="black" stroke-width="1" stroke-linecap="butt" stroke-linejoin="miter" stroke-miterlimit="10" transform="matrix(1, 0, 0, 1, 92, 12)"/><text x="0" y="9.75" style="font: 400 9pt Source Sans Pro, sans-serif" text-anchor="start" fill="black" stroke="none" transform="matrix(1, 0, 0, 1, 3.5, 0)">incomingCallResponse: {answer}</text></g><g transform="matrix(1, 0, 0, 1, -0.5, 255.5)"><path d="M 200,0 L 0,0" fill="none" stroke="black" stroke-width="1" stroke-linecap="butt" stroke-linejoin="miter" stroke-miterlimit="10" transform="matrix(1, 0, 0, 1, 0.5, 4.5)"/><path d="M 0,0 L 8,4 L 0,8" fill="none" stroke="black" stroke-width="1" stroke-linecap="butt" stroke-linejoin="miter" stroke-miterlimit="10" transform="matrix(-1, 0, 0, -1, 9, 8.5)"/><text x="0" y="9.75" style="font: 400 9pt Source Sans Pro, sans-serif" text-anchor="start" fill="black" stroke="none" transform="matrix(1, 0, 0, 1, 78.16667778428759, 7.5)">callRespone: {answer}</text></g><g transform="matrix(1, 0, 0, 1, -0.5, 284)"><path d="M 0,0 L 300,0" fill="none" stroke="black" stroke-width="1" stroke-linecap="butt" stroke-linejoin="miter" stroke-miterlimit="10" transform="matrix(1, 0, 0, 1, 0.5, 16)"/><path d="M 0,0 L 8,4 L 0,8" fill="none" stroke="black" stroke-width="1" stroke-linecap="butt" stroke-linejoin="miter" stroke-miterlimit="10" transform="matrix(1, 0, 0, 1, 292, 12)"/><text x="0" y="9.75" style="font: 400 9pt Source Sans Pro, sans-serif" text-anchor="start" fill="black" stroke="none" transform="matrix(1, 0, 0, 1, 3.5, 0)">TURN allocate request</text></g><g transform="matrix(1, 0, 0, 1, -0.5, 315.5)"><path d="M 300,0 L 0,0" fill="none" stroke="black" stroke-width="1" stroke-linecap="butt" stroke-linejoin="miter" stroke-miterlimit="10" transform="matrix(1, 0, 0, 1, 0.5, 4.5)"/><path d="M 0,0 L 8,4 L 0,8" fill="none" stroke="black" stroke-width="1" stroke-linecap="butt" stroke-linejoin="miter" stroke-miterlimit="10" transform="matrix(-1, 0, 0, -1, 9, 8.5)"/><text x="0" y="9.75" style="font: 400 9pt Source Sans Pro, sans-serif" text-anchor="start" fill="black" stroke="none" transform="matrix(1, 0, 0, 1, 86.83081657030912, 7.5)">TURN allocate response: {relayConn-1}</text></g><g transform="matrix(1, 0, 0, 1, -0.5, 344)"><path d="M 0,0 L 200,0" fill="none" stroke="black" stroke-width="1" stroke-linecap="butt" stroke-linejoin="miter" stroke-miterlimit="10" transform="matrix(1, 0, 0, 1, 0.5, 16)"/><path d="M 0,0 L 8,4 L 0,8" fill="none" stroke="black" stroke-width="1" stroke-linecap="butt" stroke-linejoin="miter" stroke-miterlimit="10" transform="matrix(1, 0, 0, 1, 192, 12)"/><text x="0" y="9.75" style="font: 400 9pt Source Sans Pro, sans-serif" text-anchor="start" fill="black" stroke="none" transform="matrix(1, 0, 0, 1, 3.5, 0)">ICEcandidate: {relayConn-1}</text></g><g transform="matrix(1, 0, 0, 1, 45, 375.5)"><path d="M 100,0 L 0,0" fill="none" stroke="black" stroke-width="1" stroke-linecap="butt" stroke-linejoin="miter" stroke-miterlimit="10" transform="matrix(1, 0, 0, 1, 55, 4.5)"/><path d="M 0,0 L 8,4 L 0,8" fill="none" stroke="black" stroke-width="1" stroke-linecap="butt" stroke-linejoin="miter" stroke-miterlimit="10" transform="matrix(-1, 0, 0, -1, 63.5, 8.5)"/><text x="0" y="9.75" style="font: 400 9pt Source Sans Pro, sans-serif" text-anchor="start" fill="black" stroke="none" transform="matrix(1, 0, 0, 1, 0, 7.5)">ICEcandidate: {relayConn-1}</text></g><g transform="matrix(1, 0, 0, 1, 99.5, 404)"><path d="M 0,0 L 200,0" fill="none" stroke="black" stroke-width="1" stroke-linecap="butt" stroke-linejoin="miter" stroke-miterlimit="10" transform="matrix(1, 0, 0, 1, 0.5, 16)"/><path d="M 0,0 L 8,4 L 0,8" fill="none" stroke="black" stroke-width="1" stroke-linecap="butt" stroke-linejoin="miter" stroke-miterlimit="10" transform="matrix(1, 0, 0, 1, 192, 12)"/><text x="0" y="9.75" style="font: 400 9pt Source Sans Pro, sans-serif" text-anchor="start" fill="black" stroke="none" transform="matrix(1, 0, 0, 1, 3.5, 0)">TURN allocate request</text></g><g transform="matrix(1, 0, 0, 1, 86.33081657030911, 435.5)"><path d="M 200,0 L 0,0" fill="none" stroke="black" stroke-width="1" stroke-linecap="butt" stroke-linejoin="miter" stroke-miterlimit="10" transform="matrix(1, 0, 0, 1, 13.66918342969089, 4.5)"/><path d="M 0,0 L 8,4 L 0,8" fill="none" stroke="black" stroke-width="1" stroke-linecap="butt" stroke-linejoin="miter" stroke-miterlimit="10" transform="matrix(-1, 0, 0, -1, 22.16918342969089, 8.5)"/><text x="0" y="9.75" style="font: 400 9pt Source Sans Pro, sans-serif" text-anchor="start" fill="black" stroke="none" transform="matrix(1, 0, 0, 1, 0, 7.5)">TURN allocate response: {relayConn-2}</text></g><g transform="matrix(1, 0, 0, 1, 99.5, 464)"><path d="M 0,0 L 100,0" fill="none" stroke="black" stroke-width="1" stroke-linecap="butt" stroke-linejoin="miter" stroke-miterlimit="10" transform="matrix(1, 0, 0, 1, 0.5, 16)"/><path d="M 0,0 L 8,4 L 0,8" fill="none" stroke="black" stroke-width="1" stroke-linecap="butt" stroke-linejoin="miter" stroke-miterlimit="10" transform="matrix(1, 0, 0, 1, 92, 12)"/><text x="0" y="9.75" style="font: 400 9pt Source Sans Pro, sans-serif" text-anchor="start" fill="black" stroke="none" transform="matrix(1, 0, 0, 1, 3.5, 0)">ICEcandidate: {relayConn-2}</text></g><g transform="matrix(1, 0, 0, 1, -0.5, 495.5)"><path d="M 200,0 L 0,0" fill="none" stroke="black" stroke-width="1" stroke-linecap="butt" stroke-linejoin="miter" stroke-miterlimit="10" transform="matrix(1, 0, 0, 1, 0.5, 4.5)"/><path d="M 0,0 L 8,4 L 0,8" fill="none" stroke="black" stroke-width="1" stroke-linecap="butt" stroke-linejoin="miter" stroke-miterlimit="10" transform="matrix(-1, 0, 0, -1, 9, 8.5)"/><text x="0" y="9.75" style="font: 400 9pt Source Sans Pro, sans-serif" text-anchor="start" fill="black" stroke="none" transform="matrix(1, 0, 0, 1, 45.5, 7.5)">ICEcandidate: {relayConn-2}</text></g><g transform="matrix(1, 0, 0, 1, -0.5, 524)"><path d="M 0,0 L 300,0" fill="none" stroke="black" stroke-width="1" stroke-linecap="butt" stroke-linejoin="miter" stroke-miterlimit="10" transform="matrix(1, 0, 0, 1, 0.5, 16)"/><path d="M 0,0 L 8,4 L 0,8" fill="none" stroke="black" stroke-width="1" stroke-linecap="butt" stroke-linejoin="miter" stroke-miterlimit="10" transform="matrix(1, 0, 0, 1, 292, 12)"/><text x="0" y="9.75" style="font: 400 9pt Source Sans Pro, sans-serif" text-anchor="start" fill="black" stroke="none" transform="matrix(1, 0, 0, 1, 3.5, 0)">TURN -&gt; relayConn-2: {media}</text></g><g transform="matrix(1, 0, 0, 1, 99.5, 544)"><path d="M 0,0 L 200,0" fill="none" stroke="black" stroke-width="1" stroke-linecap="butt" stroke-linejoin="miter" stroke-miterlimit="10" transform="matrix(1, 0, 0, 1, 0.5, 16)"/><path d="M 0,0 L 8,4 L 0,8" fill="none" stroke="black" stroke-width="1" stroke-linecap="butt" stroke-linejoin="miter" stroke-miterlimit="10" transform="matrix(1, 0, 0, 1, 192, 12)"/><text x="0" y="9.75" style="font: 400 9pt Source Sans Pro, sans-serif" text-anchor="start" fill="black" stroke="none" transform="matrix(1, 0, 0, 1, 3.5, 0)">TURN -&gt; relayConn-1: {media}</text></g><g transform="matrix(1, 0, 0, 1, -0.5, 584)"><path d="M 0,0 L 200,0" fill="none" stroke="black" stroke-width="1" stroke-linecap="butt" stroke-linejoin="miter" stroke-miterlimit="10" transform="matrix(1, 0, 0, 1, 0.5, 16)"/><path d="M 0,0 L 8,4 L 0,8" fill="none" stroke="black" stroke-width="1" stroke-linecap="butt" stroke-linejoin="miter" stroke-miterlimit="10" transform="matrix(1, 0, 0, 1, 192, 12)"/><text x="0" y="9.75" style="font: 400 9pt Source Sans Pro, sans-serif" text-anchor="start" fill="black" stroke="none" transform="matrix(1, 0, 0, 1, 3.5, 0)">stop</text></g><g transform="matrix(1, 0, 0, 1, 99.5, 615.5)"><path d="M 100,0 L 0,0" fill="none" stroke="black" stroke-width="1" stroke-linecap="butt" stroke-linejoin="miter" stroke-miterlimit="10" transform="matrix(1, 0, 0, 1, 0.5, 4.5)"/><path d="M 0,0 L 8,4 L 0,8" fill="none" stroke="black" stroke-width="1" stroke-linecap="butt" stroke-linejoin="miter" stroke-miterlimit="10" transform="matrix(-1, 0, 0, -1, 9, 8.5)"/><text x="0" y="9.75" style="font: 400 9pt Source Sans Pro, sans-serif" text-anchor="start" fill="black" stroke="none" transform="matrix(1, 0, 0, 1, 74.83502824634238, 7.5)">stop</text></g></g></g><clipPath id="mainClip867"><rect x="0" y="0" width="352px" height="679px"/></clipPath><linearGradient x1="20.92837896224898" x2="20.92837896224898" y1="0" y2="24.44007432670825" id="GRAD868" gradientUnits="userSpaceOnUse"><stop offset="0" stop-color="#bbdefb"/><stop offset="1" stop-color="rgb(158,195,222)" stop-opacity="1"/></linearGradient><linearGradient x1="22.415392921002635" x2="22.415392921002635" y1="0" y2="24.44007432670825" id="GRAD869" gradientUnits="userSpaceOnUse"><stop offset="0" stop-color="#bbdefb"/><stop offset="1" stop-color="rgb(158,195,222)" stop-opacity="1"/></linearGradient><linearGradient x1="36.864810188176975" x2="36.864810188176975" y1="0" y2="24.44007432670825" id="GRAD870" gradientUnits="userSpaceOnUse"><stop offset="0" stop-color="#bbdefb"/><stop offset="1" stop-color="rgb(158,195,222)" stop-opacity="1"/></linearGradient><linearGradient x1="27.23851429486215" x2="27.23851429486215" y1="0" y2="24.44007432670825" id="GRAD871" gradientUnits="userSpaceOnUse"><stop offset="0" stop-color="#bbdefb"/><stop offset="1" stop-color="rgb(158,195,222)" stop-opacity="1"/></linearGradient></svg>
