<svg width="352px" height="679px" viewBox="0 0 352 679" xmlns="http://www.w3.org/2000/svg" xmlns:xlink="http://www.w3.org/1999/xlink" style="width: 352px; height: 679px;"><g transform="matrix(1, 0, 0, 1, 0, 0)" clip-path="url(#mainClip867)"><rect x="0" y="0" width="352" height="679" fill="rgb(255,255,255)" fill-opacity="0" stroke="none" transform="matrix(1, 0, 0, 1, 0, 0)"/><g transform="matrix(1, 0, 0, 1, 22.426495002923048, 26.431815043617018)"><g transform="matrix(1, 0, 0, 1, -21.426495002923048, -25.431815043617018)"><g transform="matrix(1, 0, 0, 1, 0, 0)"><path d="M 0,0 L 41.852990005846095,0 L 41.852990005846095,24.431815043617018 L 0,24.431815043617018 z" fill="url(#GRAD868)" stroke="none" transform="matrix(1, 0, 0, 1, 0.5, 0.5)"/><text x="0" y="10.823861282712762" style="font: 400 10pt Source Sans Pro, sans-serif" text-anchor="start" fill="black" stroke="none" transform="matrix(1, 0, 0, 1, 5.5, 5.5)">caller</text></g><path d="M 0.5,0 L 0.5,650" stroke-dasharray="3,3" stroke-dashoffset="0" fill="none" stroke="gray" stroke-width="1" stroke-linecap="butt" stroke-linejoin="miter" stroke-miterlimit="10" transform="matrix(1, 0, 0, 1, 20.926495002923048, 25.931815043617018)"/></g><g transform="matrix(1, 0, 0, 1, 77.0847980614109, -25.431815043617018)"><g transform="matrix(1, 0, 0, 1, 0, 0)"><path d="M 0,0 L 44.83040387717822,0 L 44.83040387717822,24.431815043617018 L 0,24.431815043617018 z" fill="url(#GRAD869)" stroke="none" transform="matrix(1, 0, 0, 1, 0.5, 0.5)"/><text x="0" y="10.823861282712762" style="font: 400 10pt Source Sans Pro, sans-serif" text-anchor="start" fill="black" stroke="none" transform="matrix(1, 0, 0, 1, 5.5, 5.5)">callee</text></g><path d="M 0.5,0 L 0.5,650" stroke-dasharray="3,3" stroke-dashoffset="0" fill="none" stroke="gray" stroke-width="1" stroke-linecap="butt" stroke-linejoin="miter" stroke-miterlimit="10" transform="matrix(1, 0, 0, 1, 22.41520193858911, 25.931815043617018)"/></g><g transform="matrix(1, 0, 0, 1, 162.6361585847587, -25.431815043617018)"><g transform="matrix(1, 0, 0, 1, 0, 0)"><path d="M 0,0 L 73.7276828304826,0 L 73.7276828304826,24.431815043617018 L 0,24.431815043617018 z" fill="url(#GRAD870)" stroke="none" transform="matrix(1, 0, 0, 1, 0.5, 0.5)"/><text x="0" y="10.823861282712762" style="font: 400 10pt Source Sans Pro, sans-serif" text-anchor="start" fill="black" stroke="none" transform="matrix(1, 0, 0, 1, 5.5, 5.5)">app-server</text></g><path d="M 0.5,0 L 0.5,650" stroke-dasharray="3,3" stroke-dashoffset="0" fill="none" stroke="gray" stroke-width="1" stroke-linecap="butt" stroke-linejoin="miter" stroke-miterlimit="10" transform="matrix(1, 0, 0, 1, 36.8638414152413, 25.931815043617018)"/></g><g transform="matrix(1, 0, 0, 1, 272.25936141928923, -25.431815043617018)"><g transform="matrix(1, 0, 0, 1, 0, 0)"><path d="M 0,0 L 54.48127716142151,0 L 54.48127716142151,24.431815043617018 L 0,24.431815043617018 z" fill="url(#GRAD871)" stroke="none" transform="matrix(1, 0, 0, 1, 0.5, 0.5)"/><text x="0" y="10.823861282712762" style="font: 400 10pt Source Sans Pro, sans-serif" text-anchor="start" fill="black" stroke="none" transform="matrix(1, 0, 0, 1, 5.5, 5.5)">stunner</text></g><path d="M 0.5,0 L 0.5,650" stroke-dasharray="3,3" stroke-dashoffset="0" fill="none" stroke="gray" stroke-width="1" stroke-linecap="butt" stroke-linejoin="miter" stroke-miterlimit="10" transform="matrix(1, 0, 0, 1, 27.240638580710755, 25.931815043617018)"/></g><g transform="matrix(1, 0, 0, 1, -0.5, 24)"><path d="M 0,0 L 200,0" fill="none" stroke="black" stroke-width="1" stroke-linecap="butt" stroke-linejoin="miter" stroke-miterlimit="10" transform="matrix(1, 0, 0, 1, 0.5, 16)"/><path d="M 0,0 L 8,4 L 0,8" fill="none" stroke="black" stroke-width="1" stroke-linecap="butt" stroke-linejoin="miter" stroke-miterlimit="10" transform="matrix(1, 0, 0, 1, 192, 12)"/><text x="0" y="9.75" style="font: 400 9pt Source Sans Pro, sans-serif" text-anchor="start" fill="black" stroke="none" transform="matrix(1, 0, 0, 1, 3.5, 0)">register: {caller}</text></g><g transform="matrix(1, 0, 0, 1, -0.5, 55.5)"><path d="M 200,0 L 0,0" fill="none" stroke="black" stroke-width="1" stroke-linecap="butt" stroke-linejoin="miter" stroke-miterlimit="10" transform="matrix(1, 0, 0, 1, 0.5, 4.5)"/><path d="M 0,0 L 8,4 L 0,8" fill="none" stroke="black" stroke-width="1" stroke-linecap="butt" stroke-linejoin="miter" stroke-miterlimit="10" transform="matrix(-1, 0, 0, -1, 9, 8.5)"/><text x="0" y="9.75" style="font: 400 9pt Source Sans Pro, sans-serif" text-anchor="start" fill="black" stroke="none" transform="matrix(1, 0, 0, 1, 38.83501104496574, 7.5)">registerResponse: {iceConfig}</text></g><g transform="matrix(1, 0, 0, 1, 99.5, 84)"><path d="M 0,0 L 100,0" fill="none" stroke="black" stroke-width="1" stroke-linecap="butt" stroke-linejoin="miter" stroke-miterlimit="10" transform="matrix(1, 0, 0, 1, 0.5, 16)"/><path d="M 0,0 L 8,4 L 0,8" fill="none" stroke="black" stroke-width="1" stroke-linecap="butt" stroke-linejoin="miter" stroke-miterlimit="10" transform="matrix(1, 0, 0, 1, 92, 12)"/><text x="0" y="9.75" style="font: 400 9pt Source Sans Pro, sans-serif" text-anchor="start" fill="black" stroke="none" transform="matrix(1, 0, 0, 1, 3.5, 0)">register: {callee}</text></g><g transform="matrix(1, 0, 0, 1, 38.33501104496574, 115.5)"><path d="M 100,0 L 0,0" fill="none" stroke="black" stroke-width="1" stroke-linecap="butt" stroke-linejoin="miter" stroke-miterlimit="10" transform="matrix(1, 0, 0, 1, 61.66498895503426, 4.5)"/><path d="M 0,0 L 8,4 L 0,8" fill="none" stroke="black" stroke-width="1" stroke-linecap="butt" stroke-linejoin="miter" stroke-miterlimit="10" transform="matrix(-1, 0, 0, -1, 70.16498895503426, 8.5)"/><text x="0" y="9.75" style="font: 400 9pt Source Sans Pro, sans-serif" text-anchor="start" fill="black" stroke="none" transform="matrix(1, 0, 0, 1, 0, 7.5)">registerResponse: {iceConfig}</text></g><g transform="matrix(1, 0, 0, 1, -0.5, 164)"><path d="M 0,0 L 200,0" fill="none" stroke="black" stroke-width="1" stroke-linecap="butt" stroke-linejoin="miter" stroke-miterlimit="10" transform="matrix(1, 0, 0, 1, 0.5, 16)"/><path d="M 0,0 L 8,4 L 0,8" fill="none" stroke="black" stroke-width="1" stroke-linecap="butt" stroke-linejoin="miter" stroke-miterlimit="10" transform="matrix(1, 0, 0, 1, 192, 12)"/><text x="0" y="9.75" style="font: 400 9pt Source Sans Pro, sans-serif" text-anchor="start" fill="black" stroke="none" transform="matrix(1, 0, 0, 1, 3.5, 0)">call: {callee, offer}</text></g><g transform="matrix(1, 0, 0, 1, 55.2099827583103, 195.5)"><path d="M 100,0 L 0,0" fill="none" stroke="black" stroke-width="1" stroke-linecap="butt" stroke-linejoin="miter" stroke-miterlimit="10" transform="matrix(1, 0, 0, 1, 44.7900172416897, 4.5)"/><path d="M 0,0 L 8,4 L 0,8" fill="none" stroke="black" stroke-width="1" stroke-linecap="butt" stroke-linejoin="miter" stroke-miterlimit="10" transform="matrix(-1, 0, 0, -1, 53.2900172416897, 8.5)"/><text x="0" y="9.75" style="font: 400 9pt Source Sans Pro, sans-serif" text-anchor="start" fill="black" stroke="none" transform="matrix(1, 0, 0, 1, 0, 7.5)">incomingCall: {caller, offer}</text></g><g transform="matrix(1, 0, 0, 1, 99.5, 224)"><path d="M 0,0 L 100,0" fill="none" stroke="black" stroke-width="1" stroke-linecap="butt" stroke-linejoin="miter" stroke-miterlimit="10" transform="matrix(1, 0, 0, 1, 0.5, 16)"/><path d="M 0,0 L 8,4 L 0,8" fill="none" stroke="black" stroke-width="1" stroke-linecap="butt" stroke-linejoin="miter" stroke-miterlimit="10" transform="matrix(1, 0, 0, 1, 92, 12)"/><text x="0" y="9.75" style="font: 400 9pt Source Sans Pro, sans-serif" text-anchor="start" fill="black" stroke="none" transform="matrix(1, 0, 0, 1, 3.5, 0)">incomingCallResponse: {answer}</text></g><g transform="matrix(1, 0, 0, 1, -0.5, 255.5)"><path d="M 200,0 L 0,0" fill="none" stroke="black" stroke-width="1" stroke-linecap="butt" stroke-linejoin="miter" stroke-miterlimit="10" transform="matrix(1, 0, 0, 1, 0.5, 4.5)"/><path d="M 0,0 L 8,4 L 0,8" fill="none" stroke="black" stroke-width="1" stroke-linecap="butt" stroke-linejoin="miter" stroke-miterlimit="10" transform="matrix(-1, 0, 0, -1, 9, 8.5)"/><text x="0" y="9.75" style="font: 400 9pt Source Sans Pro, sans-serif" text-anchor="start" fill="black" stroke="none" transform="matrix(1, 0, 0, 1, 78.16941172286585, 7.5)">callRespone: {answer}</text></g><g transform="matrix(1, 0, 0, 1, -0.5, 284)"><path d="M 0,0 L 300,0" fill="none" stroke="black" stroke-width="1" stroke-linecap="butt" stroke-linejoin="miter" stroke-miterlimit="10" transform="matrix(1, 0, 0, 1, 0.5, 16)"/><path d="M 0,0 L 8,4 L 0,8" fill="none" stroke="black" stroke-width="1" stroke-linecap="butt" stroke-linejoin="miter" stroke-miterlimit="10" transform="matrix(1, 0, 0, 1, 292, 12)"/><text x="0" y="9.75" style="font: 400 9pt Source Sans Pro, sans-serif" text-anchor="start" fill="black" stroke="none" transform="matrix(1, 0, 0, 1, 3.5, 0)">TURN allocate request</text></g><g transform="matrix(1, 0, 0, 1, -0.5, 315.5)"><path d="M 300,0 L 0,0" fill="none" stroke="black" stroke-width="1" stroke-linecap="butt" stroke-linejoin="miter" stroke-miterlimit="10" transform="matrix(1, 0, 0, 1, 0.5, 4.5)"/><path d="M 0,0 L 8,4 L 0,8" fill="none" stroke="black" stroke-width="1" stroke-linecap="butt" stroke-linejoin="miter" stroke-miterlimit="10" transform="matrix(-1, 0, 0, -1, 9, 8.5)"/><text x="0" y="9.75" style="font: 400 9pt Source Sans Pro, sans-serif" text-anchor="start" fill="black" stroke="none" transform="matrix(1, 0, 0, 1, 86.83638238988306, 7.5)">TURN allocate response: {relayConn-1}</text></g><g transform="matrix(1, 0, 0, 1, -0.5, 344)"><path d="M 0,0 L 200,0" fill="none" stroke="black" stroke-width="1" stroke-linecap="butt" stroke-linejoin="miter" stroke-miterlimit="10" transform="matrix(1, 0, 0, 1, 0.5, 16)"/><path d="M 0,0 L 8,4 L 0,8" fill="none" stroke="black" stroke-width="1" stroke-linecap="butt" stroke-linejoin="miter" stroke-miterlimit="10" transform="matrix(1, 0, 0, 1, 192, 12)"/><text x="0" y="9.75" style="font: 400 9pt Source Sans Pro, sans-serif" text-anchor="start" fill="black" stroke="none" transform="matrix(1, 0, 0, 1, 3.5, 0)">ICEcandidate: {relayConn-1}</text></g><g transform="matrix(1, 0, 0, 1, 45, 375.5)"><path d="M 100,0 L 0,0" fill="none" stroke="black" stroke-width="1" stroke-linecap="butt" stroke-linejoin="miter" stroke-miterlimit="10" transform="matrix(1, 0, 0, 1, 55, 4.5)"/><path d="M 0,0 L 8,4 L 0,8" fill="none" stroke="black" stroke-width="1" stroke-linecap="butt" stroke-linejoin="miter" stroke-miterlimit="10" transform="matrix(-1, 0, 0, -1, 63.5, 8.5)"/><text x="0" y="9.75" style="font: 400 9pt Source Sans Pro, sans-serif" text-anchor="start" fill="black" stroke="none" transform="matrix(1, 0, 0, 1, 0, 7.5)">ICEcandidate: {relayConn-1}</text></g><g transform="matrix(1, 0, 0, 1, 99.5, 404)"><path d="M 0,0 L 200,0" fill="none" stroke="black" stroke-width="1" stroke-linecap="butt" stroke-linejoin="miter" stroke-miterlimit="10" transform="matrix(1, 0, 0, 1, 0.5, 16)"/><path d="M 0,0 L 8,4 L 0,8" fill="none" stroke="black" stroke-width="1" stroke-linecap="butt" stroke-linejoin="miter" stroke-miterlimit="10" transform="matrix(1, 0, 0, 1, 192, 12)"/><text x="0" y="9.75" style="font: 400 9pt Source Sans Pro, sans-serif" text-anchor="start" fill="black" stroke="none" transform="matrix(1, 0, 0, 1, 3.5, 0)">TURN allocate request</text></g><g transform="matrix(1, 0, 0, 1, 86.33638238988306, 435.5)"><path d="M 200,0 L 0,0" fill="none" stroke="black" stroke-width="1" stroke-linecap="butt" stroke-linejoin="miter" stroke-miterlimit="10" transform="matrix(1, 0, 0, 1, 13.663617610116944, 4.5)"/><path d="M 0,0 L 8,4 L 0,8" fill="none" stroke="black" stroke-width="1" stroke-linecap="butt" stroke-linejoin="miter" stroke-miterlimit="10" transform="matrix(-1, 0, 0, -1, 22.163617610116944, 8.5)"/><text x="0" y="9.75" style="font: 400 9pt Source Sans Pro, sans-serif" text-anchor="start" fill="black" stroke="none" transform="matrix(1, 0, 0, 1, 0, 7.5)">TURN allocate response: {relayConn-2}</text></g><g transform="matrix(1, 0, 0, 1, 99.5, 464)"><path d="M 0,0 L 100,0" fill="none" stroke="black" stroke-width="1" stroke-linecap="butt" stroke-linejoin="miter" stroke-miterlimit="10" transform="matrix(1, 0, 0, 1, 0.5, 16)"/><path d="M 0,0 L 8,4 L 0,8" fill="none" stroke="black" stroke-width="1" stroke-linecap="butt" stroke-linejoin="miter" stroke-miterlimit="10" transform="matrix(1, 0, 0, 1, 92, 12)"/><text x="0" y="9.75" style="font: 400 9pt Source Sans Pro, sans-serif" text-anchor="start" fill="black" stroke="none" transform="matrix(1, 0, 0, 1, 3.5, 0)">ICEcandidate: {relayConn-2}</text></g><g transform="matrix(1, 0, 0, 1, -0.5, 495.5)"><path d="M 200,0 L 0,0" fill="none" stroke="black" stroke-width="1" stroke-linecap="butt" stroke-linejoin="miter" stroke-miterlimit="10" transform="matrix(1, 0, 0, 1, 0.5, 4.5)"/><path d="M 0,0 L 8,4 L 0,8" fill="none" stroke="black" stroke-width="1" stroke-linecap="butt" stroke-linejoin="miter" stroke-miterlimit="10" transform="matrix(-1, 0, 0, -1, 9, 8.5)"/><text x="0" y="9.75" style="font: 400 9pt Source Sans Pro, sans-serif" text-anchor="start" fill="black" stroke="none" transform="matrix(1, 0, 0, 1, 45.5, 7.5)">ICEcandidate: {relayConn-2}</text></g><g transform="matrix(1, 0, 0, 1, -0.5, 524)"><path d="M 0,0 L 300,0" fill="none" stroke="black" stroke-width="1" stroke-linecap="butt" stroke-linejoin="miter" stroke-miterlimit="10" transform="matrix(1, 0, 0, 1, 0.5, 16)"/><path d="M 0,0 L 8,4 L 0,8" fill="none" stroke="black" stroke-width="1" stroke-linecap="butt" stroke-linejoin="miter" stroke-miterlimit="10" transform="matrix(1, 0, 0, 1, 292, 12)"/><text x="0" y="9.75" style="font: 400 9pt Source Sans Pro, sans-serif" text-anchor="start" fill="black" stroke="none" transform="matrix(1, 0, 0, 1, 3.5, 0)">TURN -&gt; relayConn-2: {media}</text></g><g transform="matrix(1, 0, 0, 1, 99.5, 544)"><path d="M 0,0 L 200,0" fill="none" stroke="black" stroke-width="1" stroke-linecap="butt" stroke-linejoin="miter" stroke-miterlimit="10" transform="matrix(1, 0, 0, 1, 0.5, 16)"/><path d="M 0,0 L 8,4 L 0,8" fill="none" stroke="black" stroke-width="1" stroke-linecap="butt" stroke-linejoin="miter" stroke-miterlimit="10" transform="matrix(1, 0, 0, 1, 192, 12)"/><text x="0" y="9.75" style="font: 400 9pt Source Sans Pro, sans-serif" text-anchor="start" fill="black" stroke="none" transform="matrix(1, 0, 0, 1, 3.5, 0)">TURN -&gt; relayConn-1: {media}</text></g><g transform="matrix(1, 0, 0, 1, -0.5, 584)"><path d="M 0,0 L 200,0" fill="none" stroke="black" stroke-width="1" stroke-linecap="butt" stroke-linejoin="miter" stroke-miterlimit="10" transform="matrix(1, 0, 0, 1, 0.5, 16)"/><path d="M 0,0 L 8,4 L 0,8" fill="none" stroke="black" stroke-width="1" stroke-linecap="butt" stroke-linejoin="miter" stroke-miterlimit="10" transform="matrix(1, 0, 0, 1, 192, 12)"/><text x="0" y="9.75" style="font: 400 9pt Source Sans Pro, sans-serif" text-anchor="start" fill="black" stroke="none" transform="matrix(1, 0, 0, 1, 3.5, 0)">stop</text></g><g transform="matrix(1, 0, 0, 1, 99.5, 615.5)"><path d="M 100,0 L 0,0" fill="none" stroke="black" stroke-width="1" stroke-linecap="butt" stroke-linejoin="miter" stroke-miterlimit="10" transform="matrix(1, 0, 0, 1, 0.5, 4.5)"/><path d="M 0,0 L 8,4 L 0,8" fill="none" stroke="black" stroke-width="1" stroke-linecap="butt" stroke-linejoin="miter" stroke-miterlimit="10" transform="matrix(-1, 0, 0, -1, 9, 8.5)"/><text x="0" y="9.75" style="font: 400 9pt Source Sans Pro, sans-serif" text-anchor="start" fill="black" stroke="none" transform="matrix(1, 0, 0, 1, 74.82952515941838, 7.5)">stop</text></g></g></g><clipPath id="mainClip867"><rect x="0" y="0" width="352px" height="679px"/></clipPath><linearGradient x1="20.926495002923048" x2="20.926495002923048" y1="0" y2="24.431815043617018" id="GRAD868" gradientUnits="userSpaceOnUse"><stop offset="0" stop-color="#bbdefb"/><stop offset="1" stop-color="rgb(158,195,222)" stop-opacity="1"/></linearGradient><linearGradient x1="22.41520193858911" x2="22.41520193858911" y1="0" y2="24.431815043617018" id="GRAD869" gradientUnits="userSpaceOnUse"><stop offset="0" stop-color="#bbdefb"/><stop offset="1" stop-color="rgb(158,195,222)" stop-opacity="1"/></linearGradient><linearGradient x1="36.8638414152413" x2="36.8638414152413" y1="0" y2="24.431815043617018" id="GRAD870" gradientUnits="userSpaceOnUse"><stop offset="0" stop-color="#bbdefb"/><stop offset="1" stop-color="rgb(158,195,222)" stop-opacity="1"/></linearGradient><linearGradient x1="27.240638580710755" x2="27.240638580710755" y1="0" y2="24.431815043617018" id="GRAD871" gradientUnits="userSpaceOnUse"><stop offset="0" stop-color="#bbdefb"/><stop offset="1" stop-color="rgb(158,195,222)" stop-opacity="1"/></linearGradient></svg>
