<svg width="352px" height="679px" viewBox="0 0 352 679" xmlns="http://www.w3.org/2000/svg" xlink="http://www.w3.org/1999/xlink" style="width: 352px; height: 679px;"><g transform="matrix(1, 0, 0, 1, 0, 0)" clip-path="url(#mainClip867)"><rect x="0" y="0" width="352" height="679" fill="rgb(0,0,0)" fill-opacity="0" stroke="none" transform="matrix(1, 0, 0, 1, 0, 0)"></rect><g transform="matrix(1, 0, 0, 1, 22.42755770738888, 26.431072284177915)"><g transform="matrix(1, 0, 0, 1, -21.42755770738888, -25.431072284177915)"><g transform="matrix(1, 0, 0, 1, 0, 0)"><path d="M 0,0 L 41.85511541477776,0 L 41.85511541477776,24.431072284177915 L 0,24.431072284177915 z" fill="url(#GRAD868)" stroke="none" transform="matrix(1, 0, 0, 1, 0.5, 0.5)"></path><text x="0" y="10.823304213133435" style="font: 400 10pt Source Sans Pro, sans-serif" text-anchor="start" fill="black" stroke="none" transform="matrix(1, 0, 0, 1, 5.5, 5.5)">caller</text></g><path d="M 0.5,0 L 0.5,650" stroke-dasharray="3,3" stroke-dashoffset="0" fill="none" stroke="gray" stroke-width="1" stroke-linecap="butt" stroke-linejoin="miter" stroke-miterlimit="10" transform="matrix(1, 0, 0, 1, 20.92755770738888, 25.931072284177915)"></path></g><g transform="matrix(1, 0, 0, 1, 77.08136680750538, -25.431072284177915)"><g transform="matrix(1, 0, 0, 1, 0, 0)"><path d="M 0,0 L 44.83726638498924,0 L 44.83726638498924,24.431072284177915 L 0,24.431072284177915 z" fill="url(#GRAD869)" stroke="none" transform="matrix(1, 0, 0, 1, 0.5, 0.5)"></path><text x="0" y="10.823304213133435" style="font: 400 10pt Source Sans Pro, sans-serif" text-anchor="start" fill="black" stroke="none" transform="matrix(1, 0, 0, 1, 5.5, 5.5)">callee</text></g><path d="M 0.5,0 L 0.5,650" stroke-dasharray="3,3" stroke-dashoffset="0" fill="none" stroke="gray" stroke-width="1" stroke-linecap="butt" stroke-linejoin="miter" stroke-miterlimit="10" transform="matrix(1, 0, 0, 1, 22.41863319249462, 25.931072284177915)"></path></g><g transform="matrix(1, 0, 0, 1, 162.63336511979006, -25.431072284177915)"><g transform="matrix(1, 0, 0, 1, 0, 0)"><path d="M 0,0 L 73.73326976041987,0 L 73.73326976041987,24.431072284177915 L 0,24.431072284177915 z" fill="url(#GRAD870)" stroke="none" transform="matrix(1, 0, 0, 1, 0.5, 0.5)"></path><text x="0" y="10.823304213133435" style="font: 400 10pt Source Sans Pro, sans-serif" text-anchor="start" fill="black" stroke="none" transform="matrix(1, 0, 0, 1, 5.5, 5.5)">app-server</text></g><path d="M 0.5,0 L 0.5,650" stroke-dasharray="3,3" stroke-dashoffset="0" fill="none" stroke="gray" stroke-width="1" stroke-linecap="butt" stroke-linejoin="miter" stroke-miterlimit="10" transform="matrix(1, 0, 0, 1, 36.866634880209936, 25.931072284177915)"></path></g><g transform="matrix(1, 0, 0, 1, 272.25977550077647, -25.431072284177915)"><g transform="matrix(1, 0, 0, 1, 0, 0)"><path d="M 0,0 L 54.48044899844711,0 L 54.48044899844711,24.431072284177915 L 0,24.431072284177915 z" fill="url(#GRAD871)" stroke="none" transform="matrix(1, 0, 0, 1, 0.5, 0.5)"></path><text x="0" y="10.823304213133435" style="font: 400 10pt Source Sans Pro, sans-serif" text-anchor="start" fill="black" stroke="none" transform="matrix(1, 0, 0, 1, 5.5, 5.5)">stunner</text></g><path d="M 0.5,0 L 0.5,650" stroke-dasharray="3,3" stroke-dashoffset="0" fill="none" stroke="gray" stroke-width="1" stroke-linecap="butt" stroke-linejoin="miter" stroke-miterlimit="10" transform="matrix(1, 0, 0, 1, 27.240224499223554, 25.931072284177915)"></path></g><g transform="matrix(1, 0, 0, 1, -0.5, 24)"><path d="M 0,0 L 200,0" fill="none" stroke="black" stroke-width="1" stroke-linecap="butt" stroke-linejoin="miter" stroke-miterlimit="10" transform="matrix(1, 0, 0, 1, 0.5, 16)"></path><path d="M 0,0 L 8,4 L 0,8" fill="none" stroke="black" stroke-width="1" stroke-linecap="butt" stroke-linejoin="miter" stroke-miterlimit="10" transform="matrix(1, 0, 0, 1, 192, 12)"></path><text x="0" y="9.75" style="font: 400 9pt Source Sans Pro, sans-serif" text-anchor="start" fill="black" stroke="none" transform="matrix(1, 0, 0, 1, 3.5, 0)">register: {caller}</text></g><g transform="matrix(1, 0, 0, 1, -0.5, 55.5)"><path d="M 200,0 L 0,0" fill="none" stroke="black" stroke-width="1" stroke-linecap="butt" stroke-linejoin="miter" stroke-miterlimit="10" transform="matrix(1, 0, 0, 1, 0.5, 4.5)"></path><path d="M 0,0 L 8,4 L 0,8" fill="none" stroke="black" stroke-width="1" stroke-linecap="butt" stroke-linejoin="miter" stroke-miterlimit="10" transform="matrix(-1, 0, 0, -1, 9, 8.5)"></path><text x="0" y="9.75" style="font: 400 9pt Source Sans Pro, sans-serif" text-anchor="start" fill="black" stroke="none" transform="matrix(1, 0, 0, 1, 38.836232118582785, 7.5)">registerResponse: {iceConfig}</text></g><g transform="matrix(1, 0, 0, 1, 99.5, 84)"><path d="M 0,0 L 100,0" fill="none" stroke="black" stroke-width="1" stroke-linecap="butt" stroke-linejoin="miter" stroke-miterlimit="10" transform="matrix(1, 0, 0, 1, 0.5, 16)"></path><path d="M 0,0 L 8,4 L 0,8" fill="none" stroke="black" stroke-width="1" stroke-linecap="butt" stroke-linejoin="miter" stroke-miterlimit="10" transform="matrix(1, 0, 0, 1, 92, 12)"></path><text x="0" y="9.75" style="font: 400 9pt Source Sans Pro, sans-serif" text-anchor="start" fill="black" stroke="none" transform="matrix(1, 0, 0, 1, 3.5, 0)">register: {callee}</text></g><g transform="matrix(1, 0, 0, 1, 38.336232118582785, 115.5)"><path d="M 100,0 L 0,0" fill="none" stroke="black" stroke-width="1" stroke-linecap="butt" stroke-linejoin="miter" stroke-miterlimit="10" transform="matrix(1, 0, 0, 1, 61.663767881417215, 4.5)"></path><path d="M 0,0 L 8,4 L 0,8" fill="none" stroke="black" stroke-width="1" stroke-linecap="butt" stroke-linejoin="miter" stroke-miterlimit="10" transform="matrix(-1, 0, 0, -1, 70.16376788141721, 8.5)"></path><text x="0" y="9.75" style="font: 400 9pt Source Sans Pro, sans-serif" text-anchor="start" fill="black" stroke="none" transform="matrix(1, 0, 0, 1, 0, 7.5)">registerResponse: {iceConfig}</text></g><g transform="matrix(1, 0, 0, 1, -0.5, 164)"><path d="M 0,0 L 200,0" fill="none" stroke="black" stroke-width="1" stroke-linecap="butt" stroke-linejoin="miter" stroke-miterlimit="10" transform="matrix(1, 0, 0, 1, 0.5, 16)"></path><path d="M 0,0 L 8,4 L 0,8" fill="none" stroke="black" stroke-width="1" stroke-linecap="butt" stroke-linejoin="miter" stroke-miterlimit="10" transform="matrix(1, 0, 0, 1, 192, 12)"></path><text x="0" y="9.75" style="font: 400 9pt Source Sans Pro, sans-serif" text-anchor="start" fill="black" stroke="none" transform="matrix(1, 0, 0, 1, 3.5, 0)">call: {callee, offer}</text></g><g transform="matrix(1, 0, 0, 1, 55.20463830263151, 195.5)"><path d="M 100,0 L 0,0" fill="none" stroke="black" stroke-width="1" stroke-linecap="butt" stroke-linejoin="miter" stroke-miterlimit="10" transform="matrix(1, 0, 0, 1, 44.79536169736849, 4.5)"></path><path d="M 0,0 L 8,4 L 0,8" fill="none" stroke="black" stroke-width="1" stroke-linecap="butt" stroke-linejoin="miter" stroke-miterlimit="10" transform="matrix(-1, 0, 0, -1, 53.29536169736849, 8.5)"></path><text x="0" y="9.75" style="font: 400 9pt Source Sans Pro, sans-serif" text-anchor="start" fill="black" stroke="none" transform="matrix(1, 0, 0, 1, 0, 7.5)">incomingCall: {caller, offer}</text></g><g transform="matrix(1, 0, 0, 1, 99.5, 224)"><path d="M 0,0 L 100,0" fill="none" stroke="black" stroke-width="1" stroke-linecap="butt" stroke-linejoin="miter" stroke-miterlimit="10" transform="matrix(1, 0, 0, 1, 0.5, 16)"></path><path d="M 0,0 L 8,4 L 0,8" fill="none" stroke="black" stroke-width="1" stroke-linecap="butt" stroke-linejoin="miter" stroke-miterlimit="10" transform="matrix(1, 0, 0, 1, 92, 12)"></path><text x="0" y="9.75" style="font: 400 9pt Source Sans Pro, sans-serif" text-anchor="start" fill="black" stroke="none" transform="matrix(1, 0, 0, 1, 3.5, 0)">incomingCallResponse: {answer}</text></g><g transform="matrix(1, 0, 0, 1, -0.5, 255.5)"><path d="M 200,0 L 0,0" fill="none" stroke="black" stroke-width="1" stroke-linecap="butt" stroke-linejoin="miter" stroke-miterlimit="10" transform="matrix(1, 0, 0, 1, 0.5, 4.5)"></path><path d="M 0,0 L 8,4 L 0,8" fill="none" stroke="black" stroke-width="1" stroke-linecap="butt" stroke-linejoin="miter" stroke-miterlimit="10" transform="matrix(-1, 0, 0, -1, 9, 8.5)"></path><text x="0" y="9.75" style="font: 400 9pt Source Sans Pro, sans-serif" text-anchor="start" fill="black" stroke="none" transform="matrix(1, 0, 0, 1, 78.16564702878799, 7.5)">callRespone: {answer}</text></g><g transform="matrix(1, 0, 0, 1, -0.5, 284)"><path d="M 0,0 L 300,0" fill="none" stroke="black" stroke-width="1" stroke-linecap="butt" stroke-linejoin="miter" stroke-miterlimit="10" transform="matrix(1, 0, 0, 1, 0.5, 16)"></path><path d="M 0,0 L 8,4 L 0,8" fill="none" stroke="black" stroke-width="1" stroke-linecap="butt" stroke-linejoin="miter" stroke-miterlimit="10" transform="matrix(1, 0, 0, 1, 292, 12)"></path><text x="0" y="9.75" style="font: 400 9pt Source Sans Pro, sans-serif" text-anchor="start" fill="black" stroke="none" transform="matrix(1, 0, 0, 1, 3.5, 0)">TURN allocate request</text></g><g transform="matrix(1, 0, 0, 1, -0.5, 315.5)"><path d="M 300,0 L 0,0" fill="none" stroke="black" stroke-width="1" stroke-linecap="butt" stroke-linejoin="miter" stroke-miterlimit="10" transform="matrix(1, 0, 0, 1, 0.5, 4.5)"></path><path d="M 0,0 L 8,4 L 0,8" fill="none" stroke="black" stroke-width="1" stroke-linecap="butt" stroke-linejoin="miter" stroke-miterlimit="10" transform="matrix(-1, 0, 0, -1, 9, 8.5)"></path><text x="0" y="9.75" style="font: 400 9pt Source Sans Pro, sans-serif" text-anchor="start" fill="black" stroke="none" transform="matrix(1, 0, 0, 1, 86.83261599604606, 7.5)">TURN allocate response: {relayConn-1}</text></g><g transform="matrix(1, 0, 0, 1, -0.5, 344)"><path d="M 0,0 L 200,0" fill="none" stroke="black" stroke-width="1" stroke-linecap="butt" stroke-linejoin="miter" stroke-miterlimit="10" transform="matrix(1, 0, 0, 1, 0.5, 16)"></path><path d="M 0,0 L 8,4 L 0,8" fill="none" stroke="black" stroke-width="1" stroke-linecap="butt" stroke-linejoin="miter" stroke-miterlimit="10" transform="matrix(1, 0, 0, 1, 192, 12)"></path><text x="0" y="9.75" style="font: 400 9pt Source Sans Pro, sans-serif" text-anchor="start" fill="black" stroke="none" transform="matrix(1, 0, 0, 1, 3.5, 0)">ICEcandidate: {relayConn-1}</text></g><g transform="matrix(1, 0, 0, 1, 45, 375.5)"><path d="M 100,0 L 0,0" fill="none" stroke="black" stroke-width="1" stroke-linecap="butt" stroke-linejoin="miter" stroke-miterlimit="10" transform="matrix(1, 0, 0, 1, 55, 4.5)"></path><path d="M 0,0 L 8,4 L 0,8" fill="none" stroke="black" stroke-width="1" stroke-linecap="butt" stroke-linejoin="miter" stroke-miterlimit="10" transform="matrix(-1, 0, 0, -1, 63.5, 8.5)"></path><text x="0" y="9.75" style="font: 400 9pt Source Sans Pro, sans-serif" text-anchor="start" fill="black" stroke="none" transform="matrix(1, 0, 0, 1, 0, 7.5)">ICEcandidate: {relayConn-1}</text></g><g transform="matrix(1, 0, 0, 1, 99.5, 404)"><path d="M 0,0 L 200,0" fill="none" stroke="black" stroke-width="1" stroke-linecap="butt" stroke-linejoin="miter" stroke-miterlimit="10" transform="matrix(1, 0, 0, 1, 0.5, 16)"></path><path d="M 0,0 L 8,4 L 0,8" fill="none" stroke="black" stroke-width="1" stroke-linecap="butt" stroke-linejoin="miter" stroke-miterlimit="10" transform="matrix(1, 0, 0, 1, 192, 12)"></path><text x="0" y="9.75" style="font: 400 9pt Source Sans Pro, sans-serif" text-anchor="start" fill="black" stroke="none" transform="matrix(1, 0, 0, 1, 3.5, 0)">TURN allocate request</text></g><g transform="matrix(1, 0, 0, 1, 86.33261599604606, 435.5)"><path d="M 200,0 L 0,0" fill="none" stroke="black" stroke-width="1" stroke-linecap="butt" stroke-linejoin="miter" stroke-miterlimit="10" transform="matrix(1, 0, 0, 1, 13.667384003953941, 4.5)"></path><path d="M 0,0 L 8,4 L 0,8" fill="none" stroke="black" stroke-width="1" stroke-linecap="butt" stroke-linejoin="miter" stroke-miterlimit="10" transform="matrix(-1, 0, 0, -1, 22.16738400395394, 8.5)"></path><text x="0" y="9.75" style="font: 400 9pt Source Sans Pro, sans-serif" text-anchor="start" fill="black" stroke="none" transform="matrix(1, 0, 0, 1, 0, 7.5)">TURN allocate response: {relayConn-2}</text></g><g transform="matrix(1, 0, 0, 1, 99.5, 464)"><path d="M 0,0 L 100,0" fill="none" stroke="black" stroke-width="1" stroke-linecap="butt" stroke-linejoin="miter" stroke-miterlimit="10" transform="matrix(1, 0, 0, 1, 0.5, 16)"></path><path d="M 0,0 L 8,4 L 0,8" fill="none" stroke="black" stroke-width="1" stroke-linecap="butt" stroke-linejoin="miter" stroke-miterlimit="10" transform="matrix(1, 0, 0, 1, 92, 12)"></path><text x="0" y="9.75" style="font: 400 9pt Source Sans Pro, sans-serif" text-anchor="start" fill="black" stroke="none" transform="matrix(1, 0, 0, 1, 3.5, 0)">ICEcandidate: {relayConn-2}</text></g><g transform="matrix(1, 0, 0, 1, -0.5, 495.5)"><path d="M 200,0 L 0,0" fill="none" stroke="black" stroke-width="1" stroke-linecap="butt" stroke-linejoin="miter" stroke-miterlimit="10" transform="matrix(1, 0, 0, 1, 0.5, 4.5)"></path><path d="M 0,0 L 8,4 L 0,8" fill="none" stroke="black" stroke-width="1" stroke-linecap="butt" stroke-linejoin="miter" stroke-miterlimit="10" transform="matrix(-1, 0, 0, -1, 9, 8.5)"></path><text x="0" y="9.75" style="font: 400 9pt Source Sans Pro, sans-serif" text-anchor="start" fill="black" stroke="none" transform="matrix(1, 0, 0, 1, 45.5, 7.5)">ICEcandidate: {relayConn-2}</text></g><g transform="matrix(1, 0, 0, 1, -0.5, 524)"><path d="M 0,0 L 300,0" fill="none" stroke="black" stroke-width="1" stroke-linecap="butt" stroke-linejoin="miter" stroke-miterlimit="10" transform="matrix(1, 0, 0, 1, 0.5, 16)"></path><path d="M 0,0 L 8,4 L 0,8" fill="none" stroke="black" stroke-width="1" stroke-linecap="butt" stroke-linejoin="miter" stroke-miterlimit="10" transform="matrix(1, 0, 0, 1, 292, 12)"></path><text x="0" y="9.75" style="font: 400 9pt Source Sans Pro, sans-serif" text-anchor="start" fill="black" stroke="none" transform="matrix(1, 0, 0, 1, 3.5, 0)">TURN -&gt; relayConn-2: {media}</text></g><g transform="matrix(1, 0, 0, 1, 99.5, 544)"><path d="M 0,0 L 200,0" fill="none" stroke="black" stroke-width="1" stroke-linecap="butt" stroke-linejoin="miter" stroke-miterlimit="10" transform="matrix(1, 0, 0, 1, 0.5, 16)"></path><path d="M 0,0 L 8,4 L 0,8" fill="none" stroke="black" stroke-width="1" stroke-linecap="butt" stroke-linejoin="miter" stroke-miterlimit="10" transform="matrix(1, 0, 0, 1, 192, 12)"></path><text x="0" y="9.75" style="font: 400 9pt Source Sans Pro, sans-serif" text-anchor="start" fill="black" stroke="none" transform="matrix(1, 0, 0, 1, 3.5, 0)">TURN -&gt; relayConn-1: {media}</text></g><g transform="matrix(1, 0, 0, 1, -0.5, 584)"><path d="M 0,0 L 200,0" fill="none" stroke="black" stroke-width="1" stroke-linecap="butt" stroke-linejoin="miter" stroke-miterlimit="10" transform="matrix(1, 0, 0, 1, 0.5, 16)"></path><path d="M 0,0 L 8,4 L 0,8" fill="none" stroke="black" stroke-width="1" stroke-linecap="butt" stroke-linejoin="miter" stroke-miterlimit="10" transform="matrix(1, 0, 0, 1, 192, 12)"></path><text x="0" y="9.75" style="font: 400 9pt Source Sans Pro, sans-serif" text-anchor="start" fill="black" stroke="none" transform="matrix(1, 0, 0, 1, 3.5, 0)">stop</text></g><g transform="matrix(1, 0, 0, 1, 99.5, 615.5)"><path d="M 100,0 L 0,0" fill="none" stroke="black" stroke-width="1" stroke-linecap="butt" stroke-linejoin="miter" stroke-miterlimit="10" transform="matrix(1, 0, 0, 1, 0.5, 4.5)"></path><path d="M 0,0 L 8,4 L 0,8" fill="none" stroke="black" stroke-width="1" stroke-linecap="butt" stroke-linejoin="miter" stroke-miterlimit="10" transform="matrix(-1, 0, 0, -1, 9, 8.5)"></path><text x="0" y="9.75" style="font: 400 9pt Source Sans Pro, sans-serif" text-anchor="start" fill="black" stroke="none" transform="matrix(1, 0, 0, 1, 74.83261622573815, 7.5)">stop</text></g></g></g><clipPath id="mainClip867"><rect x="0" y="0" width="352px" height="679px"></rect></clipPath><linearGradient x1="20.92755770738888" x2="20.92755770738888" y1="0" y2="24.431072284177915" id="GRAD868" gradientUnits="userSpaceOnUse"><stop offset="0" stop-color="#bbdefb"></stop><stop offset="1" stop-color="rgb(158,195,221)" stop-opacity="1"></stop></linearGradient><linearGradient x1="22.41863319249462" x2="22.41863319249462" y1="0" y2="24.431072284177915" id="GRAD869" gradientUnits="userSpaceOnUse"><stop offset="0" stop-color="#bbdefb"></stop><stop offset="1" stop-color="rgb(158,195,221)" stop-opacity="1"></stop></linearGradient><linearGradient x1="36.866634880209936" x2="36.866634880209936" y1="0" y2="24.431072284177915" id="GRAD870" gradientUnits="userSpaceOnUse"><stop offset="0" stop-color="#bbdefb"></stop><stop offset="1" stop-color="rgb(158,195,221)" stop-opacity="1"></stop></linearGradient><linearGradient x1="27.240224499223554" x2="27.240224499223554" y1="0" y2="24.431072284177915" id="GRAD871" gradientUnits="userSpaceOnUse"><stop offset="0" stop-color="#bbdefb"></stop><stop offset="1" stop-color="rgb(158,195,221)" stop-opacity="1"></stop></linearGradient></svg>
